<?xml version="1.0" encoding="UTF-8" standalone="no"?>
<!DOCTYPE svg PUBLIC "-//W3C//DTD SVG 1.1//EN"
 "http://www.w3.org/Graphics/SVG/1.1/DTD/svg11.dtd">
<!-- Generated by graphviz version 2.40.1 (20161225.0304)
 -->
<!-- Title: dependencies Pages: 1 -->
<svg width="862pt" height="284pt"
 viewBox="0.00 0.00 862.00 284.00" xmlns="http://www.w3.org/2000/svg" xmlns:xlink="http://www.w3.org/1999/xlink">
<g id="graph0" class="graph" transform="scale(1 1) rotate(0) translate(4 280)">
<title>dependencies</title>
<polygon fill="#ffffff" stroke="transparent" points="-4,4 -4,-280 858,-280 858,4 -4,4"/>
<text text-anchor="start" x="406.0091" y="-42.4" font-family="sans-serif" font-weight="bold" font-size="14.00" fill="#000000">Legend</text>
<polygon fill="#ffffb3" stroke="transparent" points="193,-10 193,-30 213,-30 213,-10 193,-10"/>
<text text-anchor="start" x="216.629" y="-15.4" font-family="sans-serif" font-size="14.00" fill="#000000"> &#160;Declarations</text>
<polygon fill="#8dd3c7" stroke="transparent" points="306,-10 306,-30 326,-30 326,-10 306,-10"/>
<text text-anchor="start" x="329.7251" y="-15.4" font-family="sans-serif" font-size="14.00" fill="#000000"> &#160;Module</text>
<polygon fill="#80b1d3" stroke="transparent" points="392,-10 392,-30 412,-30 412,-10 392,-10"/>
<text text-anchor="start" x="415.7812" y="-15.4" font-family="sans-serif" font-size="14.00" fill="#000000"> &#160;Bootstrap</text>
<polygon fill="#fdb462" stroke="transparent" points="489,-10 489,-30 509,-30 509,-10 489,-10"/>
<text text-anchor="start" x="512.6732" y="-15.4" font-family="sans-serif" font-size="14.00" fill="#000000"> &#160;Providers</text>
<polygon fill="#fb8072" stroke="transparent" points="585,-10 585,-30 605,-30 605,-10 585,-10"/>
<text text-anchor="start" x="608.7258" y="-15.4" font-family="sans-serif" font-size="14.00" fill="#000000"> &#160;Exports</text>
<g id="clust1" class="cluster">
<title>cluster_AppModule</title>
<polygon fill="none" stroke="#000000" stroke-dasharray="1,5" points="8,-70 8,-268 298,-268 298,-70 8,-70"/>
</g>
<g id="clust2" class="cluster">
<title>cluster_AppModule_declarations</title>
<polygon fill="none" stroke="#000000" points="168,-78 168,-130 290,-130 290,-78 168,-78"/>
</g>
<g id="clust4" class="cluster">
<title>cluster_AppModule_imports</title>
<polygon fill="none" stroke="#000000" points="16,-78 16,-130 160,-130 160,-78 16,-78"/>
</g>
<g id="clust6" class="cluster">
<title>cluster_AppModule_bootstrap</title>
<polygon fill="none" stroke="#000000" points="96,-208 96,-260 220,-260 220,-208 96,-208"/>
</g>
<g id="clust14" class="cluster">
<title>cluster_FindModule</title>
<polygon fill="none" stroke="#000000" stroke-dasharray="1,5" points="306,-70 306,-195 476,-195 476,-70 306,-70"/>
</g>
<g id="clust15" class="cluster">
<title>cluster_FindModule_declarations</title>
<polygon fill="none" stroke="#000000" points="314,-78 314,-130 468,-130 468,-78 314,-78"/>
</g>
<g id="clust21" class="cluster">
<title>cluster_HomeModule</title>
<polygon fill="none" stroke="#000000" stroke-dasharray="1,5" points="484,-70 484,-195 664,-195 664,-70 484,-70"/>
</g>
<g id="clust22" class="cluster">
<title>cluster_HomeModule_declarations</title>
<polygon fill="none" stroke="#000000" points="492,-78 492,-130 656,-130 656,-78 492,-78"/>
</g>
<g id="clust28" class="cluster">
<title>cluster_LoanModule</title>
<polygon fill="none" stroke="#000000" stroke-dasharray="1,5" points="672,-70 672,-195 846,-195 846,-70 672,-70"/>
</g>
<g id="clust29" class="cluster">
<title>cluster_LoanModule_declarations</title>
<polygon fill="none" stroke="#000000" points="680,-78 680,-130 838,-130 838,-78 680,-78"/>
</g>
<!-- AppComponent -->
<g id="node1" class="node">
<title>AppComponent</title>
<polygon fill="#ffffb3" stroke="#000000" points="281.9399,-122 176.0601,-122 176.0601,-86 281.9399,-86 281.9399,-122"/>
<text text-anchor="middle" x="229" y="-99.8" font-family="Times,serif" font-size="14.00" fill="#000000">AppComponent</text>
</g>
<!-- AppModule -->
<g id="node2" class="node">
<title>AppModule</title>
<polygon fill="#8dd3c7" stroke="#000000" points="199.6571,-187 196.6571,-191 175.6571,-191 172.6571,-187 116.3429,-187 116.3429,-151 199.6571,-151 199.6571,-187"/>
<text text-anchor="middle" x="158" y="-164.8" font-family="Times,serif" font-size="14.00" fill="#000000">AppModule</text>
</g>
<!-- AppComponent&#45;&gt;AppModule -->
<g id="edge1" class="edge">
<title>AppComponent&#45;&gt;AppModule</title>
<path fill="none" stroke="#000000" d="M188.0544,-122.1061C188.0544,-122.1061 188.0544,-140.991 188.0544,-140.991"/>
<polygon fill="#000000" stroke="#000000" points="184.5544,-140.9909 188.0544,-150.991 191.5544,-140.991 184.5544,-140.9909"/>
</g>
<!-- AppComponent  -->
<g id="node4" class="node">
<title>AppComponent </title>
<polygon fill="#80b1d3" stroke="#000000" points="212.439,-252 103.561,-252 103.561,-216 212.439,-216 212.439,-252"/>
<text text-anchor="middle" x="158" y="-229.8" font-family="Times,serif" font-size="14.00" fill="#000000">AppComponent </text>
</g>
<!-- AppModule&#45;&gt;AppComponent  -->
<g id="edge3" class="edge">
<title>AppModule&#45;&gt;AppComponent </title>
<path fill="none" stroke="#000000" stroke-dasharray="1,5" d="M158,-187.1061C158,-187.1061 158,-205.991 158,-205.991"/>
<polygon fill="#000000" stroke="#000000" points="154.5001,-205.9909 158,-215.991 161.5001,-205.991 154.5001,-205.9909"/>
</g>
<!-- AppRoutingModule -->
<g id="node3" class="node">
<title>AppRoutingModule</title>
<polygon fill="#8dd3c7" stroke="#000000" points="152.2744,-122 149.2744,-126 128.2744,-126 125.2744,-122 23.7256,-122 23.7256,-86 152.2744,-86 152.2744,-122"/>
<text text-anchor="middle" x="88" y="-99.8" font-family="Times,serif" font-size="14.00" fill="#000000">AppRoutingModule</text>
</g>
<!-- AppRoutingModule&#45;&gt;AppModule -->
<g id="edge2" class="edge">
<title>AppRoutingModule&#45;&gt;AppModule</title>
<path fill="none" stroke="#000000" d="M134.2795,-122.1061C134.2795,-122.1061 134.2795,-140.991 134.2795,-140.991"/>
<polygon fill="#000000" stroke="#000000" points="130.7795,-140.9909 134.2795,-150.991 137.7795,-140.991 130.7795,-140.9909"/>
</g>
<!-- FindIndexComponent -->
<g id="node5" class="node">
<title>FindIndexComponent</title>
<polygon fill="#ffffb3" stroke="#000000" points="460.3809,-122 321.6191,-122 321.6191,-86 460.3809,-86 460.3809,-122"/>
<text text-anchor="middle" x="391" y="-99.8" font-family="Times,serif" font-size="14.00" fill="#000000">FindIndexComponent</text>
</g>
<!-- FindModule -->
<g id="node6" class="node">
<title>FindModule</title>
<polygon fill="#8dd3c7" stroke="#000000" points="433.7233,-187 430.7233,-191 409.7233,-191 406.7233,-187 348.2767,-187 348.2767,-151 433.7233,-151 433.7233,-187"/>
<text text-anchor="middle" x="391" y="-164.8" font-family="Times,serif" font-size="14.00" fill="#000000">FindModule</text>
</g>
<!-- FindIndexComponent&#45;&gt;FindModule -->
<g id="edge4" class="edge">
<title>FindIndexComponent&#45;&gt;FindModule</title>
<path fill="none" stroke="#000000" d="M391,-122.1061C391,-122.1061 391,-140.991 391,-140.991"/>
<polygon fill="#000000" stroke="#000000" points="387.5001,-140.9909 391,-150.991 394.5001,-140.991 387.5001,-140.9909"/>
</g>
<!-- HomeIndexComponent -->
<g id="node7" class="node">
<title>HomeIndexComponent</title>
<polygon fill="#ffffb3" stroke="#000000" points="647.92,-122 500.08,-122 500.08,-86 647.92,-86 647.92,-122"/>
<text text-anchor="middle" x="574" y="-99.8" font-family="Times,serif" font-size="14.00" fill="#000000">HomeIndexComponent</text>
</g>
<!-- HomeModule -->
<g id="node8" class="node">
<title>HomeModule</title>
<polygon fill="#8dd3c7" stroke="#000000" points="620.7619,-187 617.7619,-191 596.7619,-191 593.7619,-187 527.2381,-187 527.2381,-151 620.7619,-151 620.7619,-187"/>
<text text-anchor="middle" x="574" y="-164.8" font-family="Times,serif" font-size="14.00" fill="#000000">HomeModule</text>
</g>
<!-- HomeIndexComponent&#45;&gt;HomeModule -->
<g id="edge5" class="edge">
<title>HomeIndexComponent&#45;&gt;HomeModule</title>
<path fill="none" stroke="#000000" d="M574,-122.1061C574,-122.1061 574,-140.991 574,-140.991"/>
<polygon fill="#000000" stroke="#000000" points="570.5001,-140.9909 574,-150.991 577.5001,-140.991 570.5001,-140.9909"/>
</g>
<!-- LoanIndexComponent -->
<g id="node9" class="node">
<title>LoanIndexComponent</title>
<polygon fill="#ffffb3" stroke="#000000" points="829.9748,-122 688.0252,-122 688.0252,-86 829.9748,-86 829.9748,-122"/>
<text text-anchor="middle" x="759" y="-99.8" font-family="Times,serif" font-size="14.00" fill="#000000">LoanIndexComponent</text>
</g>
<!-- LoanModule -->
<g id="node10" class="node">
<title>LoanModule</title>
<polygon fill="#8dd3c7" stroke="#000000" points="803.3176,-187 800.3176,-191 779.3176,-191 776.3176,-187 714.6824,-187 714.6824,-151 803.3176,-151 803.3176,-187"/>
<text text-anchor="middle" x="759" y="-164.8" font-family="Times,serif" font-size="14.00" fill="#000000">LoanModule</text>
</g>
<!-- LoanIndexComponent&#45;&gt;LoanModule -->
<g id="edge6" class="edge">
<title>LoanIndexComponent&#45;&gt;LoanModule</title>
<path fill="none" stroke="#000000" d="M759,-122.1061C759,-122.1061 759,-140.991 759,-140.991"/>
<polygon fill="#000000" stroke="#000000" points="755.5001,-140.9909 759,-150.991 762.5001,-140.991 755.5001,-140.9909"/>
</g>
</g>
</svg>
